HIERARCHY
ROOT joint_Root
{
	OFFSET 0.0 0.0 0.0
	CHANNELS 6 Xposition Yposition Zposition Zrotation Xrotation Yrotation 
	JOINT Hips
	{
		OFFSET -17.1583 93.1646 452.98
		CHANNELS 6 Xposition Yposition Zposition Zrotation Xrotation Yrotation 
		JOINT Spine
		{
			OFFSET 15.7357 0.0 0.0
			CHANNELS 6 Xposition Yposition Zposition Zrotation Xrotation Yrotation 
			JOINT Chest
			{
				OFFSET 8.98455 -0.406207 0.0
				CHANNELS 6 Xposition Yposition Zposition Zrotation Xrotation Yrotation 
				JOINT Neck
				{
					OFFSET 16.3773 0.0 0.0
					CHANNELS 6 Xposition Yposition Zposition Zrotation Xrotation Yrotation 
					JOINT Head
					{
						OFFSET 6.45672 0.0 0.0
						CHANNELS 6 Xposition Yposition Zposition Zrotation Xrotation Yrotation 
						End Site
						{
							OFFSET 0.0 0.0 0.0
						}
					}
				}
				JOINT Shoulder_L
				{
					OFFSET 12.9942 -0.242716 4.98039
					CHANNELS 6 Xposition Yposition Zposition Zrotation Xrotation Yrotation 
					JOINT UpperArm_L
					{
						OFFSET 5.34809 0.0 0.0
						CHANNELS 6 Xposition Yposition Zposition Zrotation Xrotation Yrotation 
						JOINT LowerArm_L
						{
							OFFSET 24.3286 1.87007e-05 0.0
							CHANNELS 6 Xposition Yposition Zposition Zrotation Xrotation Yrotation 
							JOINT Hand_L
							{
								OFFSET 22.2916 0.0 0.0
								CHANNELS 6 Xposition Yposition Zposition Zrotation Xrotation Yrotation 
								End Site
								{
									OFFSET 0.0 0.0 0.0
								}
							}
						}
					}
				}
				JOINT Shoulder_R
				{
					OFFSET 12.9945 -0.242716 -4.98039
					CHANNELS 6 Xposition Yposition Zposition Zrotation Xrotation Yrotation 
					JOINT UpperArm_R
					{
						OFFSET -5.34813 0.0 0.0
						CHANNELS 6 Xposition Yposition Zposition Zrotation Xrotation Yrotation 
						JOINT LowerArm_R
						{
							OFFSET -24.3289 0.000322201 0.0
							CHANNELS 6 Xposition Yposition Zposition Zrotation Xrotation Yrotation 
							JOINT Hand_R
							{
								OFFSET -22.2915 -0.000108084 0.0
								CHANNELS 6 Xposition Yposition Zposition Zrotation Xrotation Yrotation 
								End Site
								{
									OFFSET 0.0 0.0 0.0
								}
							}
						}
					}
				}
			}
		}
		JOINT UpperLeg_L
		{
			OFFSET -2.19248 -6.46944 0.0
			CHANNELS 6 Xposition Yposition Zposition Zrotation Xrotation Yrotation 
			JOINT LowerLeg_L
			{
				OFFSET 39.0811 0.0 -1.23785e-05
				CHANNELS 6 Xposition Yposition Zposition Zrotation Xrotation Yrotation 
				JOINT Foot_L
				{
					OFFSET 40.9854 0.0 -1.26872e-05
					CHANNELS 6 Xposition Yposition Zposition Zrotation Xrotation Yrotation 
					JOINT Toes_L
					{
						OFFSET 11.7543 0.0 0.0
						CHANNELS 6 Xposition Yposition Zposition Zrotation Xrotation Yrotation 
						End Site
						{
							OFFSET 0.0 0.0 0.0
						}
					}
				}
			}
		}
		JOINT UpperLeg_R
		{
			OFFSET -2.19251 6.46944 0.0
			CHANNELS 6 Xposition Yposition Zposition Zrotation Xrotation Yrotation 
			JOINT LowerLeg_R
			{
				OFFSET -39.0811 -0.00228153 -0.0401928
				CHANNELS 6 Xposition Yposition Zposition Zrotation Xrotation Yrotation 
				JOINT Foot_R
				{
					OFFSET -40.9854 0.0 0.0
					CHANNELS 6 Xposition Yposition Zposition Zrotation Xrotation Yrotation 
					JOINT Toes_R
					{
						OFFSET -11.7543 0.0 0.0
						CHANNELS 6 Xposition Yposition Zposition Zrotation Xrotation Yrotation 
						End Site
						{
							OFFSET 0.0 0.0 0.0
						}
					}
				}
			}
		}
	}
}
MOTION
Frames:	4
Frame Time:	0.0333333
0.000000 0.000000 0.000000 0.000000 0.000000 -0.000000 -0.529804 93.160800 -1.038270 87.399700 -1.738990 0.532694 15.735700 0.000005 -0.000001 71.018200 86.916900 -69.162700 8.984550 -0.406207 -0.000000 -1.897920 -2.161560 3.674780 16.377300 -0.000001 -0.000001 2.903380 1.896160 -1.921260 6.456720 -0.000001 -0.000000 -2.054230 1.661900 -2.502960 12.994200 -0.242716 4.980390 -92.536900 7.610770 -71.503200 5.348090 -0.000007 -0.000001 -74.449400 14.132700 2.163670 24.328600 0.000019 0.000005 14.377600 26.640500 -29.755900 22.291600 -0.000001 0.000005 -1.811670 5.036540 6.532320 12.994500 -0.242716 -4.980390 88.615700 4.288490 -72.091900 -5.348130 -0.000001 -0.000004 -70.010100 24.039200 -4.201950 -24.328900 0.000322 -0.000009 2.342870 5.813340 -22.004200 -22.291500 -0.000108 -0.000004 3.308130 5.248530 1.471840 -2.192480 -6.469440 -0.000000 -176.781000 0.144417 -2.211550 39.081100 -0.000007 -0.000012 0.150421 -0.476051 17.535600 40.985400 -0.000006 -0.000013 2.422570 9.355450 -70.475600 11.754300 -0.000000 0.000003 0.000062 0.166574 -9.820710 -2.192510 6.469440 -0.000001 -175.698000 4.853440 -178.941000 -39.081100 -0.002282 -0.040193 0.028116 -0.121591 11.519200 -40.985400 0.000008 0.000006 -0.370006 3.513170 -67.615700 -11.754300 -0.000006 -0.000006 -0.009437 0.267050 -5.724970
0.000000 0.000000 0.000000 0.000000 0.000000 -0.000000 -0.608550 93.166500 -1.087210 87.395300 -1.729440 0.468819 15.735700 0.000005 -0.000001 71.027200 86.889000 -69.161100 8.984550 -0.406207 -0.000000 -1.844300 -2.178820 3.696800 16.377300 -0.000001 -0.000001 2.700090 1.811270 -1.720480 6.456720 -0.000001 -0.000000 -2.377330 1.576140 -2.253330 12.994200 -0.242716 4.980390 -92.549700 7.660180 -71.527400 5.348090 -0.000007 -0.000001 -74.155000 11.921100 2.160260 24.328600 0.000019 0.000005 14.654900 26.114500 -30.714700 22.291600 -0.000001 0.000005 -1.632280 5.025650 6.769170 12.994500 -0.242716 -4.980390 88.601800 4.312320 -72.016500 -5.348130 -0.000001 -0.000004 -69.628100 22.218900 -4.233030 -24.328900 0.000322 -0.000009 2.455270 5.809750 -22.966500 -22.291500 -0.000108 -0.000004 2.783180 5.231260 1.923080 -2.192480 -6.469440 -0.000000 -176.725000 0.146187 -2.321510 39.081100 -0.000007 -0.000012 0.151500 -0.479212 17.544300 40.985400 -0.000006 -0.000013 2.362030 9.357610 -70.455200 11.754300 -0.000000 0.000003 -0.000046 0.168389 -9.747020 -2.192510 6.469440 -0.000001 -175.632000 4.878110 -179.014000 -39.081100 -0.002282 -0.040193 0.027709 -0.120195 11.462600 -40.985400 0.000008 0.000006 -0.317596 3.525550 -67.539600 -11.754300 -0.000006 -0.000006 -0.009406 0.266810 -5.734790
0.000000 0.000000 0.000000 0.000000 0.000000 -0.000000 -0.694883 93.175800 -1.125220 87.381900 -1.718350 0.462719 15.735700 0.000005 -0.000001 71.124800 86.830700 -69.244100 8.984550 -0.406207 -0.000000 -1.729640 -2.205890 3.727680 16.377300 -0.000001 -0.000001 2.507980 1.738520 -1.464410 6.456720 -0.000001 -0.000000 -2.887380 1.590860 -1.877440 12.994200 -0.242716 4.980390 -92.592400 7.748460 -71.437300 5.348090 -0.000007 -0.000001 -73.728300 9.450420 2.297250 24.328600 0.000019 0.000005 15.210200 25.115900 -32.642100 22.291600 -0.000001 0.000005 -1.494550 5.003130 7.252850 12.994500 -0.242716 -4.980390 88.591000 4.338290 -71.987100 -5.348130 -0.000001 -0.000004 -69.220900 19.742400 -3.991790 -24.328900 0.000322 -0.000009 2.339610 5.050820 -24.906200 -22.291500 -0.000108 -0.000004 2.172130 5.198800 2.750210 -2.192480 -6.469440 -0.000000 -176.646000 0.172885 -2.324470 39.081100 -0.000007 -0.000012 0.150065 -0.476254 17.489600 40.985400 -0.000006 -0.000013 2.291460 9.375770 -70.394600 11.754300 -0.000000 0.000003 0.000094 0.166034 -9.842640 -2.192510 6.469440 -0.000001 -175.558000 4.803880 -178.998000 -39.081100 -0.002282 -0.040193 0.026456 -0.114983 11.368900 -40.985400 0.000008 0.000006 -0.401260 3.443060 -67.460300 -11.754300 -0.000006 -0.000006 -0.009674 0.268850 -5.651390
0.000000 0.000000 0.000000 0.000000 0.000000 -0.000000 -0.777062 93.176000 -1.185640 87.396500 -1.646950 0.404289 15.735700 0.000005 -0.000001 71.106400 86.793900 -69.232700 8.984550 -0.406207 -0.000000 -1.660400 -2.229940 3.714570 16.377300 -0.000001 -0.000001 2.367810 1.646000 -1.134530 6.456720 -0.000001 -0.000000 -3.496180 1.594460 -1.358270 12.994200 -0.242716 4.980390 -92.628400 7.821170 -71.358700 5.348090 -0.000007 -0.000001 -73.089900 7.150690 2.551120 24.328600 0.000019 0.000005 15.566600 23.062800 -35.418400 22.291600 -0.000001 0.000005 -1.278930 4.979280 7.756960 12.994500 -0.242716 -4.980390 88.578300 4.340590 -71.844800 -5.348130 -0.000001 -0.000004 -68.794000 16.826600 -3.605410 -24.328900 0.000322 -0.000009 1.908110 3.649240 -27.647000 -22.291500 -0.000108 -0.000004 1.691180 5.171140 3.432790 -2.192480 -6.469440 -0.000000 -176.604000 0.239822 -2.461630 39.081100 -0.000007 -0.000012 0.151944 -0.480595 17.545000 40.985400 -0.000006 -0.000013 2.229300 9.385770 -70.422800 11.754300 -0.000000 0.000003 -0.000075 0.168878 -9.727140 -2.192510 6.469440 -0.000001 -175.492000 4.855720 -179.106000 -39.081100 -0.002282 -0.040193 0.027412 -0.119576 11.383600 -40.985400 0.000008 0.000006 -0.263156 3.406580 -67.452600 -11.754300 -0.000006 -0.000006 -0.009552 0.267926 -5.689160
